<?xml version="1.0" encoding="UTF-8"?>
<!DOCTYPE svg PUBLIC "-//W3C//DTD SVG 1.1//EN" "http://www.w3.org/Graphics/SVG/1.1/DTD/svg11.dtd">
<svg xmlns="http://www.w3.org/2000/svg" style="background: transparent; background-color: transparent; color-scheme: light;" xmlns:xlink="http://www.w3.org/1999/xlink" version="1.1" width="1150px" height="680px" viewBox="-0.5 -0.5 1150 680"><defs/><g><g data-cell-id="0"><g data-cell-id="1"><g data-cell-id="5kwOAgvD38r4J8Nn_Z9G-9"><g><rect x="0" y="0" width="1150" height="680" fill="#52a44f" style="fill: rgb(82, 164, 79);" stroke="none" pointer-events="all"/></g></g><g data-cell-id="5kwOAgvD38r4J8Nn_Z9G-2"><g><rect x="85" y="60" width="980" height="560" fill="#52a44f" style="fill: rgb(82, 164, 79);" stroke="none" pointer-events="all"/></g></g><g data-cell-id="5kwOAgvD38r4J8Nn_Z9G-5"><g><rect x="85" y="60" width="980" height="560" fill="none" stroke="#ffffff" style="stroke: rgb(255, 255, 255);" stroke-width="12" pointer-events="all"/></g></g><g data-cell-id="5kwOAgvD38r4J8Nn_Z9G-12"><g><rect x="40" y="287.5" width="45" height="105" fill="#ffffff" style="fill: rgb(255, 255, 255);" stroke="none" pointer-events="all"/></g></g><g data-cell-id="5kwOAgvD38r4J8Nn_Z9G-14"><g><rect x="1060" y="287.5" width="45" height="105" fill="#ffffff" style="fill: rgb(255, 255, 255);" stroke="none" pointer-events="all"/></g></g><g data-cell-id="5kwOAgvD38r4J8Nn_Z9G-15"><g><rect x="85" y="240" width="85" height="200" fill="none" stroke="#ffffff" style="stroke: rgb(255, 255, 255);" stroke-width="10" pointer-events="all"/></g></g><g data-cell-id="5kwOAgvD38r4J8Nn_Z9G-16"><g><rect x="980" y="240" width="85" height="200" fill="none" stroke="#ffffff" style="stroke: rgb(255, 255, 255);" stroke-width="10" pointer-events="all"/></g></g><g data-cell-id="5kwOAgvD38r4J8Nn_Z9G-17"><g><rect x="85" y="180" width="170" height="320" fill="none" stroke="#ffffff" style="stroke: rgb(255, 255, 255);" stroke-width="10" pointer-events="all"/></g></g><g data-cell-id="5kwOAgvD38r4J8Nn_Z9G-18"><g><rect x="895" y="180" width="170" height="320" fill="none" stroke="#ffffff" style="stroke: rgb(255, 255, 255);" stroke-width="10" pointer-events="all"/></g></g><g data-cell-id="5kwOAgvD38r4J8Nn_Z9G-19"><g><path d="M 575 60 L 575 620" fill="none" stroke="#ffffff" style="stroke: rgb(255, 255, 255);" stroke-width="10" stroke-miterlimit="10" pointer-events="stroke"/></g></g><g data-cell-id="5kwOAgvD38r4J8Nn_Z9G-20"><g><ellipse cx="575" cy="340" rx="79" ry="79" fill="transparent" stroke="#ffffff" style="stroke: rgb(255, 255, 255);" stroke-width="10" pointer-events="all"/></g></g><g data-cell-id="5kwOAgvD38r4J8Nn_Z9G-23"><g><ellipse cx="575" cy="340" rx="16.25" ry="16.25" fill="#ffffff" style="fill: rgb(255, 255, 255);" stroke="none" pointer-events="all"/></g></g><g data-cell-id="5kwOAgvD38r4J8Nn_Z9G-25"><g><path d="M 87 60 L 127 60 C 127 82.09 109.09 100 87 100 Z" fill="none" stroke="#ffffff" style="stroke: rgb(255, 255, 255);" stroke-width="10" stroke-miterlimit="10" pointer-events="all"/></g></g><g data-cell-id="5kwOAgvD38r4J8Nn_Z9G-26"><g><path d="M 1065 60 L 1105 60 C 1105 82.09 1087.09 100 1065 100 Z" fill="none" stroke="#ffffff" style="stroke: rgb(255, 255, 255);" stroke-width="10" stroke-miterlimit="10" transform="rotate(90,1065,60)" pointer-events="all"/></g></g><g data-cell-id="5kwOAgvD38r4J8Nn_Z9G-27"><g><path d="M 1065 620 L 1105 620 C 1105 642.09 1087.09 660 1065 660 Z" fill="none" stroke="#ffffff" style="stroke: rgb(255, 255, 255);" stroke-width="10" stroke-miterlimit="10" transform="rotate(180,1065,620)" pointer-events="all"/></g></g><g data-cell-id="5kwOAgvD38r4J8Nn_Z9G-28"><g><path d="M 87 620 L 127 620 C 127 642.09 109.09 660 87 660 Z" fill="none" stroke="#ffffff" style="stroke: rgb(255, 255, 255);" stroke-width="10" stroke-miterlimit="10" transform="rotate(270,87,620)" pointer-events="all"/></g></g></g></g></g></svg>
